<svg aria-hidden="true" style="position:absolute;width:0;height:0;overflow:hidden" xmlns="http://www.w3.org/2000/svg"><defs><symbol id="icon-envelope" viewBox="0 0 45 32"><path d="M40.602 0h-36.4C1.885 0 0 1.792 0 4v24c0 2.208 1.885 4 4.202 4h36.4c2.31 0 4.198-1.792 4.198-4V4c0-2.208-1.885-4-4.202-4zm0 2.666c.189 0 .368.038.534.106L22.4 18.238 3.664 2.772c.158-.066.342-.104.534-.106h36.401zm0 26.668H4.17c-.744 0-1.35-.593-1.369-1.333V5.586l18.682 15.421a1.435 1.435 0 0 0 1.839-.002l-.002.002L42.002 5.586v22.413c0 .736-.627 1.334-1.402 1.334z"/></symbol><symbol id="icon-envelope-desktop" viewBox="0 0 43 32"><path d="M38.667 0H4C1.795 0 0 1.795 0 4v24c0 2.205 1.795 4 4 4h34.667c2.205 0 4-1.795 4-4V4c0-2.205-1.795-4-4-4zm0 2.667c.181 0 .355.037.512.104L21.334 18.238 3.489 2.771c.151-.065.327-.104.512-.104h34.667zm0 26.666H4A1.333 1.333 0 0 1 2.667 28V5.587l17.792 15.421c.233.203.539.327.875.327s.642-.124.876-.328l-.002.001L40 5.587V28c0 .736-.597 1.333-1.333 1.333z"/></symbol><symbol id="icon-smartphone" viewBox="0 0 23 32"><path d="M19.429 0h-16C1.539 0 0 1.346 0 3.001v25.998C0 30.656 1.538 32 3.429 32h16c1.89 0 3.429-1.346 3.429-3.001V3.001C22.858 1.346 21.32 0 19.429 0zm-16 2h16c.631 0 1.143.448 1.143 1.001V24H2.286V2.999c0-.549.512-.999 1.143-.999zm16 28h-16c-.631 0-1.143-.448-1.143-1.001V26h18.286v3.001c0 .549-.512.999-1.143.999z"/><path d="M5.381 27.291a.915.915 0 0 1 .002 1.416l-.002.001a1.257 1.257 0 0 1-1.62-.001l.002.002a.915.915 0 0 1-.002-1.416l.002-.001a1.257 1.257 0 0 1 1.62.001l-.002-.002z"/></symbol><symbol id="icon-smartphone-desktop" viewBox="0 0 20 32"><path d="M17 0H3C1.346 0 0 1.346 0 3v26c0 1.654 1.346 3 3 3h14c1.654 0 3-1.346 3-3V3c0-1.654-1.346-3-3-3zM3 2h14a1 1 0 0 1 1 1v21H2V3a1 1 0 0 1 1-1zm14 28H3a1 1 0 0 1-1-1v-3h16v3a1 1 0 0 1-1 1z"/><path d="M4.708 27.478a.889.889 0 0 1 .001 1.319l-.001.001a1.048 1.048 0 0 1-1.417 0l.001.001a.889.889 0 0 1-.001-1.319l.001-.001a1.048 1.048 0 0 1 1.417 0l-.001-.001z"/></symbol></defs></svg>