<svg width="106" height="60" fill="none" xmlns="http://www.w3.org/2000/svg"><path d="M26.757 44.735c.244.276.373.622.367.977a1.43 1.43 0 0 1-.131.676 1.556 1.556 0 0 1-.438.558 2.627 2.627 0 0 1-1.651.45H22v-6.19h2.844a2.593 2.593 0 0 1 1.576.41c.184.142.33.32.425.52.096.201.139.42.127.64.016.34-.1.676-.33.946-.221.246-.526.416-.866.484.385.064.733.252.98.53Zm-3.406-.934h1.216c.276.018.55-.055.773-.206a.738.738 0 0 0 .207-.275.68.68 0 0 0 .054-.33.702.702 0 0 0-.055-.329.76.76 0 0 0-.203-.276 1.255 1.255 0 0 0-.796-.209H23.35v1.625Zm2.108 2.374a.775.775 0 0 0 .224-.284.711.711 0 0 0 .063-.345.723.723 0 0 0-.066-.35.788.788 0 0 0-.228-.285 1.34 1.34 0 0 0-.826-.224h-1.275v1.703h1.292c.29.015.578-.06.816-.215ZM32.57 47.397l-1.581-2.42h-.595v2.42h-1.361v-6.191h2.577a2.698 2.698 0 0 1 1.793.526c.36.336.578.779.613 1.248.035.47-.114.936-.421 1.314a2.147 2.147 0 0 1-1.229.629l1.685 2.474h-1.48Zm-2.176-3.264h1.113c.773 0 1.16-.312 1.16-.937a.852.852 0 0 0-.063-.375.916.916 0 0 0-.221-.321 1.282 1.282 0 0 0-.876-.251h-1.126l.013 1.884ZM40.01 46.15h-2.712l-.479 1.247h-1.427l2.49-6.122h1.544l2.48 6.122H40.48l-.469-1.246Zm-.363-.937-.991-2.613-.991 2.613h1.982ZM49.322 47.397h-1.35l-3.03-4.21v4.21h-1.348v-6.192h1.348l3.03 4.235v-4.235h1.35v6.192ZM57.032 45.915c-.279.467-.704.848-1.222 1.092a4.287 4.287 0 0 1-1.9.39h-2.404v-6.192h2.405a4.376 4.376 0 0 1 1.9.382c.516.238.943.615 1.221 1.08.279.503.424 1.06.424 1.624 0 .564-.145 1.12-.424 1.624Zm-1.545-.148c.385-.412.597-.936.597-1.478a2.16 2.16 0 0 0-.598-1.477 2.489 2.489 0 0 0-1.69-.527h-.939v4.008h.938a2.488 2.488 0 0 0 1.691-.526ZM40.856 6.767s17.438 6.028 17.068 14.75v14.755S40.5 30.241 40.862 21.518l-.006-14.751ZM73.46 32.818c3.294-2.075 7.103-3.36 11.08-3.738v-4.62c-4.582 1.618-8.469 4.55-11.08 8.358Z" fill="#AFB1B8"/><path d="M71.481 34.21c2.696-4.97 7.37-8.806 13.059-10.717V10.185s-24.835 8.587-24.31 21.009V52.2s1.107-.384 2.848-1.104c0-.671 0-1.349.079-2.03.514-5.767 3.508-11.11 8.325-14.857Z" fill="#AFB1B8"/><path d="M69.12 42.013a20.05 20.05 0 0 1 .868-4.301c-2.998 3.235-4.815 7.25-5.192 11.478-.037.4-.057.799-.067 1.21a74.697 74.697 0 0 0 4.777-2.304c-.44-2.001-.57-4.049-.386-6.083ZM70.107 42.089a19.058 19.058 0 0 0 .308 5.508c6.785-3.718 14.41-9.462 14.115-16.403v-.605c-4.848.497-9.383 2.437-12.91 5.523a19.256 19.256 0 0 0-1.513 5.977Z" fill="#AFB1B8"/></svg>