<svg aria-hidden="true" style="position:absolute;width:0;height:0;overflow:hidden" xmlns="http://www.w3.org/2000/svg"><defs><symbol id="icon-antenna" viewBox="0 0 32 32"><path fill="#212121" style="fill:var(--color1, #212121)" d="m30.773 22.098-8.443-8.505.937-4.616c.225.09.485.144.758.146h.033a2.16 2.16 0 1 0-2.029-1.42l-.005-.015-4.96.606L8.973.161a.53.53 0 0 0-.376-.16.536.536 0 0 0-.373.155L6.712 1.66a.535.535 0 0 0 0 .754l.814.825C6.383 5.301 5.71 7.761 5.71 10.378c0 4.106 1.656 7.824 4.336 10.525l-.001-.001a.49.49 0 0 0 .146.097 2.986 2.986 0 0 0-.052.546v6.188h-6.4a2.669 2.669 0 0 0-2.667 2.666v1.067c0 .295.239.534.534.534H26.14a.534.534 0 0 0 .533-.534v-1.067a2.67 2.67 0 0 0-2.666-2.666h-6.4v-2.742a14.784 14.784 0 0 0 10.166-1.502l-.077.039.818.823a.534.534 0 0 0 .376.16.536.536 0 0 0 .373-.155l1.512-1.504a.535.535 0 0 0 0-.754zM23.28 6.233a1.067 1.067 0 1 1 .752 1.822h-.004a1.066 1.066 0 0 1-.747-1.822h-.002zm-1.256 3.504-.598 2.946-1.175-1.183 1.774-1.763zm-.605-.902-1.92 1.909-1.486-1.493 3.406-.416zM24.004 28.8a1.6 1.6 0 0 1 1.6 1.6v.534H2.138V30.4a1.6 1.6 0 0 1 1.6-1.6h20.267zm-7.466-2.134v1.067h-5.334v-1.067h5.334zM11.204 25.6v-4.053c0-1.294 1.196-2.346 2.667-2.346s2.667 1.053 2.667 2.346V25.6h-5.334zm6.4-1.696v-2.357c0-1.882-1.675-3.413-3.733-3.413h-.058c-1.353 0-2.54.707-3.213 1.771l-.009.016a13.817 13.817 0 0 1-3.812-9.55c0-2.314.567-4.496 1.569-6.414l-.036.077 18.602 18.709c-1.823.947-3.979 1.502-6.266 1.502-1.079 0-2.128-.124-3.136-.357l.093.018zm11.289-.684L7.836 2.039l.754-.752 7.935 7.98c.004 0 .006.007.01.01l13.114 13.191-.757.752z"/><path fill="#2196f3" style="fill:var(--color2, #2196f3)" d="M13.876 20.267h-.007a1.6 1.6 0 0 0-.003 3.2h.007a1.6 1.6 0 0 0 .002-3.2zm.373 1.978a.533.533 0 1 1-.378-.911.533.533 0 0 1 .374.911h.005z"/></symbol><symbol id="icon-astronaut" viewBox="0 0 32 32"><path fill="#2196f3" style="fill:var(--color2, #2196f3)" d="M31.974 4.524a.535.535 0 0 0-.427-.362h-.003l-1.91-.278-.855-1.731c-.179-.365-.777-.365-.956 0l-.855 1.731-1.911.278a.534.534 0 0 0-.296.91l1.383 1.348-.326 1.903a.536.536 0 0 0 .525.624.524.524 0 0 0 .252-.064l-.003.001 1.708-.899 1.709.899a.534.534 0 0 0 .773-.565v.003l-.326-1.903 1.383-1.348a.532.532 0 0 0 .133-.551l.001.004zm-2.463 1.327a.534.534 0 0 0-.153.472l.191 1.114-1.001-.526a.524.524 0 0 0-.499.001l.003-.001-1.001.526.192-1.114a.533.533 0 0 0-.153-.472l-.811-.789 1.119-.163a.532.532 0 0 0 .402-.292l.5-1.013.501 1.013a.532.532 0 0 0 .402.292l1.119.162-.809.79zm-3.377 14.671h-1.067v1.067h1.067v-1.067zm0 2.134h-1.067v1.066h1.067v-1.066zm1.066-1.067h-1.067v1.067H27.2v-1.067zM25.067 21.589H24v1.067h1.067v-1.067zm-2.667 4.8h-1.067v1.067H22.4v-1.067zm0 2.134h-1.067v1.067H22.4v-1.067zm1.066-1.067h-1.067v1.067h1.067v-1.067zm-2.132 0h-1.067v1.067h1.067v-1.067zM16 24.256h-1.067v1.067H16v-1.067zm0 2.133h-1.067v1.067H16v-1.067zm1.067-1.067H16v1.067h1.067v-1.067zm-2.134 0h-1.066v1.067h1.066v-1.067zm-9.066-19.2H4.8v1.066h1.067V6.122zm0 2.134H4.8v1.066h1.067V8.256zm1.066-1.067H5.866v1.067h1.066V7.189zm-2.133 0H3.733v1.067H4.8V7.189z"/><path fill="#212121" style="fill:var(--color1, #212121)" d="M24.715 14.16a1.774 1.774 0 0 0-1.179-.703l-.009-.001a1.769 1.769 0 0 0-1.344.355l.004-.003-1.253.96-1.898 1.417-1.358-.541c2.421-1.086 4.113-3.508 4.113-6.32 0-3.823-3.122-6.934-6.961-6.934S7.869 5.5 7.869 9.324c0 1.386.415 2.674 1.12 3.759l-2.768-.024c-.009 0-.016.005-.023.005a.511.511 0 0 0-.159.033l.004-.001c-.013.005-.026.007-.038.013-.006.003-.013.003-.019.006l-3.233 1.596-.001.001-1.893.91a.429.429 0 0 0-.064.036l.001-.001a1.782 1.782 0 0 0-.594 2.306l-.005-.01c.22.424.592.742 1.043.885l.013.003a1.772 1.772 0 0 0 1.388-.133l-.009.005 1.388-.738 2.264-1.169 1.357-.008-5.442 5.415-.001.001-1.339 1.333c-.303.299-.49.714-.49 1.173v.005a1.66 1.66 0 0 0 1.666 1.663h.004a1.67 1.67 0 0 0 1.18-.485l1.314-1.309 1.741-1.3.901.897-3.102 3.088a1.643 1.643 0 0 0-.491 1.173v.004a1.662 1.662 0 0 0 1.666 1.664h.003a1.67 1.67 0 0 0 1.18-.485l4.488-4.472c.007-.006.016-.009.022-.016l5.166-5.658 3.471.494a.474.474 0 0 0 .262-.032c.018-.006.033-.015.05-.023.019-.01.039-.015.058-.027l3.213-2.133c.012-.008.018-.021.029-.03.013-.01.029-.014.041-.026l1.271-1.191c.348-.326.564-.787.564-1.3 0-.4-.132-.769-.355-1.067l.003.005zM2.13 17.77a.71.71 0 0 1-.558.052.717.717 0 0 1-.214-1.258l.002-.001 1.314-.632.316.924.133.389-.992.527zm3.497-1.828-1.548.8-.255-.746-.184-.537 2.027-1.001-.04 1.484zm15.1-6.62c0 .918-.219 1.785-.599 2.56l-4.181-1.899a1.865 1.865 0 0 0-.782-1.384l-.006-.004 1.463-4.861c2.378.756 4.105 2.974 4.105 5.588zm-11.789 0c0-3.235 2.644-5.867 5.894-5.867.253 0 .5.022.745.053l-1.432 4.753c-.019 0-.037-.006-.057-.006h-.001a1.872 1.872 0 0 0-1.872 1.867 1.873 1.873 0 0 0 1.872 1.867h.001c.695 0 1.295-.383 1.618-.944l3.863 1.755a5.893 5.893 0 0 1-4.737 2.389c-3.25 0-5.894-2.632-5.894-5.867zm5.957.8c0 .441-.362.8-.806.8h-.001a.804.804 0 0 1-.804-.8c0-.441.361-.8.806-.8s.806.359.806.8zM2.464 25.146a.606.606 0 0 1-.855.001.591.591 0 0 1 0-.844l.962-.959.852.848-.959.955zm3.214 3.734a.606.606 0 0 1-.855.001.591.591 0 0 1 0-.844l.963-.959.852.848-.96.955zm3.482-3.469-.001.001-1.765 1.76-.852-.848 1.765-1.757a.527.527 0 0 0 .09-.136c.007-.014.02-.026.026-.04.016-.041.019-.085.026-.128.003-.025.014-.048.014-.073 0-.036-.013-.07-.02-.106-.006-.032-.006-.064-.019-.096a.536.536 0 0 0-.092-.138c-.01-.012-.014-.027-.025-.038h-.001l-.001-.002-1.607-1.6c-.017-.017-.039-.024-.058-.038a.563.563 0 0 0-.084-.057l-.003-.001a.559.559 0 0 0-.09-.031l-.003-.001a.502.502 0 0 0-.101-.02h-.002l-.023-.001a.603.603 0 0 0-.075.005h.003c-.036.005-.069.009-.104.021a.512.512 0 0 0-.097.046l.002-.001c-.02.011-.042.015-.061.029l-1.773 1.324-.901-.897 2.399-2.386 4.361 4.289-.928.919zm6.819-7.017c-.015-.002-.03.004-.045.003l-.026-.001a.562.562 0 0 0-.092.008h.003a.484.484 0 0 0-.187.07l.002-.001a.528.528 0 0 0-.083.062c-.013.011-.028.016-.04.029l-4.698 5.146-4.328-4.256 2.833-2.818a.535.535 0 0 0-.378-.911h-.002l-2.219.013.028-1.607 3.104.027a6.928 6.928 0 0 0 4.978 2.101h.003c.438 0 .864-.046 1.28-.122.04.032.08.064.129.085l2.41.96.152.759.178.885-3.003-.427zm4.041.178-.313-1.558 1.446-1.08.946 1.257-2.08 1.381zm3.754-2.831-.838.785-.931-1.237.831-.637a.735.735 0 0 1 .543-.143.718.718 0 0 1 .621.71.71.71 0 0 1-.226.521z"/><path fill="#212121" style="fill:var(--color1, #212121)" d="m13.602 18.544-2.143-2.134a.53.53 0 0 0-.752 0l-2.143 2.133a.535.535 0 0 0 0 .756l2.143 2.134a.53.53 0 0 0 .752 0l2.143-2.134a.532.532 0 0 0 0-.756zm-2.519 1.759-1.387-1.381 1.386-1.381 1.387 1.381-1.387 1.381zm6.081-15.232-.258 1.036c.071.018 1.738.452 1.738 2.149h1.067c0-2.017-1.666-2.965-2.547-3.184zm2.547 4.251h-1.067v1.066h1.067V9.322z"/></symbol><symbol id="icon-clock" viewBox="0 0 32 32"><path fill="#212121" style="fill:var(--color1, #212121)" d="M31.296 15.301C31.295 6.849 24.441-.002 15.988 0S.685 6.855.687 15.308c.002 6.788 4.422 12.543 10.541 14.545l.108.031a.667.667 0 0 0 .529-.065.636.636 0 0 0 .283-.357l3.865-12.25a1.913 1.913 0 1 0-.852-3.63l.011-.005-5.106-5.107a.638.638 0 0 0-.902.902l5.103 5.109a1.847 1.847 0 0 0-.191.826c0 .602.283 1.137.723 1.48l.004.003-3.682 11.673C3.843 25.782.117 17.709 2.797 10.431S13.551-.573 20.829 2.108c7.278 2.681 11.004 10.754 8.323 18.032-1.345 3.581-4.003 6.406-7.374 7.938l-.088.036-.398-1.874a.639.639 0 0 0-1.05-.343l.001-.001-3.837 3.426a.637.637 0 0 0 .227 1.083l.005.001 4.899 1.563a.637.637 0 0 0 .818-.744l.001.004-.391-1.839c5.528-2.374 9.329-7.772 9.329-14.057v-.034.002zm-15.304-.637a.638.638 0 0 1 0 1.276.638.638 0 0 1 0-1.276zm2.1 14.864 2.184-1.948.603 2.84-2.787-.892z"/><path fill="#2196f3" style="fill:var(--color2, #2196f3)" d="M15.354 3.185V4.46a.638.638 0 0 0 1.276 0V3.185a.638.638 0 1 0-1.276 0zM3.876 14.664a.638.638 0 0 0 0 1.276h1.275a.638.638 0 0 0 0-1.276H3.876zm24.232 1.275a.638.638 0 0 0 0-1.276h-1.275a.638.638 0 0 0 0 1.276h1.275z"/></symbol><symbol id="icon-close_40px" viewBox="0 0 32 32"><path d="M23.734 10.304 22.23 8.8l-5.963 5.962L10.305 8.8l-1.504 1.504 5.962 5.962-5.962 5.963 1.504 1.504 5.962-5.963 5.963 5.963 1.504-1.504-5.963-5.963 5.963-5.962z"/></symbol><symbol id="icon-close-black-18dp" viewBox="0 0 32 32"><path d="m26.667 7.303-1.97-1.97-7.808 7.808-7.808-7.808-1.97 1.97 7.808 7.808-7.808 7.808 1.97 1.97 7.808-7.808 7.808 7.808 1.97-1.97-7.808-7.808 7.808-7.808z"/></symbol><symbol id="icon-diagram" viewBox="0 0 32 32"><path fill="#2196f3" style="fill:var(--color2, #2196f3)" d="M14.926 14.965h1.066v4.798h-1.066v-4.798zm4.264 2.132h1.066v2.665H19.19v-2.665zm-8.529 1.599h1.066v1.066h-1.066v-1.066zm-3.198-.533h1.066v1.6H7.463v-1.6z"/><path fill="#212121" style="fill:var(--color1, #212121)" d="M1.599 28.291h25.586a1.6 1.6 0 0 0 1.599-1.599V24.56a1.6 1.6 0 0 0-1.599-1.599h-.533V9.667l3.028-2.868a1.608 1.608 0 1 0-.742-.752l-.004-.01-2.281 2.162v-1.23a1.6 1.6 0 0 0-1.599-1.599H3.731a1.6 1.6 0 0 0-1.599 1.599v15.992h-.533A1.6 1.6 0 0 0 0 24.56v2.132a1.6 1.6 0 0 0 1.599 1.599zM30.384 4.837a.533.533 0 0 1 0 1.066.533.533 0 0 1 0-1.066zM3.198 6.969c0-.294.239-.533.533-.533h21.323c.294 0 .533.239.533.533v2.239l-1.066 1.013V8.036a.534.534 0 0 0-.534-.534H4.798a.534.534 0 0 0-.534.533v13.327c0 .294.239.533.534.533h19.189a.534.534 0 0 0 .534-.533v-9.675l1.066-1.01V22.96H3.198V6.969zm4.798 6.93h-.005a1.6 1.6 0 1 0 1.112 2.748l1.853.93a.533.533 0 0 0 .636-.123l3.939-4.431 3.872 2.902a.534.534 0 0 0 .686-.039l3.365-3.188v8.131H5.331V8.568h18.123v2.661l-3.771 3.572-3.904-2.927a.534.534 0 0 0-.718.071v.001l-3.993 4.493-1.493-.746c.01-.056.017-.123.02-.19V15.5a1.6 1.6 0 0 0-1.599-1.599zm.533 1.599a.533.533 0 0 1-1.066 0 .533.533 0 0 1 1.066 0zm3.198 8.528h5.33v.533a.533.533 0 0 1-.533.533h-4.265a.533.533 0 0 1-.533-.533v-.533zm-10.66.534c0-.294.238-.533.533-.533h9.062v.533a1.6 1.6 0 0 0 1.599 1.599h4.265a1.6 1.6 0 0 0 1.599-1.599v-.533h9.062c.294 0 .533.239.533.533v2.132a.533.533 0 0 1-.533.533H1.601a.533.533 0 0 1-.533-.533V24.56z"/></symbol><symbol id="icon-email-black-18dp" viewBox="0 0 32 32"><path d="M26.667 5.333H5.334A2.662 2.662 0 0 0 2.682 8l-.014 16c0 1.467 1.2 2.667 2.667 2.667h21.333c1.467 0 2.667-1.2 2.667-2.667V8c0-1.467-1.2-2.667-2.667-2.667zm-.534 5.668-9.426 5.892a1.343 1.343 0 0 1-1.421-.004l.006.003L5.866 11A1.133 1.133 0 1 1 7.07 9.083l-.004-.003 8.933 5.586 8.933-5.588a1.132 1.132 0 1 1 1.204 1.916l-.005.003z"/></symbol><symbol id="icon-facebook" viewBox="0 0 32 32"><path fill="#afb1b8" style="fill:var(--color3, #afb1b8)" d="M21.328 5.312h2.923V.224A36.478 36.478 0 0 0 20.144 0h-.157.008c-4.213 0-7.099 2.65-7.099 7.52V12H8.25v5.688h4.646V32h5.698V17.69h4.461l.707-5.688h-5.168V8.08c0-1.643.443-2.768 2.734-2.768z"/></symbol><symbol id="icon-frame" viewBox="0 0 34 32"><path d="M30.34 3.556v24.887H3.793V3.556H30.34zm0-3.556H3.793C1.707 0 0 1.6 0 3.556v24.887c0 1.956 1.707 3.556 3.793 3.556H30.34c2.086 0 3.793-1.6 3.793-3.556V3.556C34.133 1.6 32.426 0 30.34 0z"/></symbol><symbol id="icon-icon-check" viewBox="0 0 34 32"><path fill="#2196f3" style="fill:var(--color2, #2196f3)" d="M4.267 0h25.6a4.267 4.267 0 0 1 4.267 4.267v23.467a4.267 4.267 0 0 1-4.267 4.267h-25.6A4.267 4.267 0 0 1 0 27.734V4.267A4.267 4.267 0 0 1 4.267 0z"/><path fill="#fff" style="fill:var(--color4, #fff);stroke:var(--color4, #fff)" stroke="#fff" stroke-width=".427" d="m8.442 16.538-.147-.141-.147.139-2.057 1.95.162.156 7.605 7.253.147-.141 16.171-15.426-.162-.154-2.029-1.935-.147.141-13.98 13.325-5.417-5.167z"/></symbol><symbol id="icon-instagram" viewBox="0 0 32 32"><path fill="#afb1b8" style="fill:var(--color3, #afb1b8)" d="M31.968 9.408c-.074-1.701-.349-2.869-.742-3.882a7.839 7.839 0 0 0-1.85-2.837l-.001-.001A7.906 7.906 0 0 0 26.597.861l-.054-.018C25.524.449 24.362.176 22.661.101 20.949.019 20.405 0 16.059 0c-4.344 0-4.888.019-6.595.094-1.699.074-2.869.349-3.88.742a7.847 7.847 0 0 0-2.839 1.85l-.001.001A7.9 7.9 0 0 0 .919 5.465l-.018.054C.506 6.538.232 7.7.157 9.401c-.082 1.712-.101 2.256-.101 6.602 0 4.344.019 4.888.094 6.595.075 1.701.35 2.869.744 3.882a7.915 7.915 0 0 0 1.849 2.837l.001.001c.8.813 1.77 1.443 2.832 1.843 1.019.395 2.182.67 3.882.744 1.707.075 2.251.094 6.595.094 4.346 0 4.89-.019 6.595-.094 1.701-.074 2.869-.349 3.882-.742a8.237 8.237 0 0 0 4.664-4.628l.019-.055c.394-1.019.669-2.182.744-3.882.075-1.707.093-2.251.093-6.595s-.006-4.888-.08-6.595zm-2.88 13.066c-.07 1.563-.333 2.406-.55 2.97a5.341 5.341 0 0 1-3.004 3.024l-.036.012c-.56.219-1.411.482-2.968.55-1.688.075-2.194.094-6.464.094-4.269 0-4.782-.019-6.464-.094-1.563-.069-2.406-.331-2.97-.55a4.953 4.953 0 0 1-1.836-1.192l-.001-.001a4.978 4.978 0 0 1-1.184-1.803L3.6 25.45c-.218-.563-.48-1.413-.549-2.97-.075-1.688-.094-2.195-.094-6.464 0-4.27.019-4.784.094-6.464.069-1.563.331-2.406.549-2.97a4.897 4.897 0 0 1 1.198-1.837l.002-.002a4.972 4.972 0 0 1 1.806-1.182l.034-.011c.56-.219 1.411-.48 2.968-.55 1.688-.074 2.195-.093 6.464-.093 4.275 0 4.782.019 6.464.093 1.563.069 2.406.331 2.97.55a4.91 4.91 0 0 1 1.837 1.194c.531.52.938 1.144 1.195 1.84.218.56.48 1.411.549 2.968.075 1.688.094 2.194.094 6.464 0 4.269-.019 4.768-.094 6.458z"/><path fill="#afb1b8" style="fill:var(--color3, #afb1b8)" d="M16.059 7.782a8.223 8.223 0 0 0-8.219 8.221v.002a8.222 8.222 0 1 0 16.444 0 8.222 8.222 0 0 0-8.222-8.222h-.002zm0 13.552a5.333 5.333 0 0 1 .001-10.666h.001a5.334 5.334 0 1 1 0 10.668zM26.525 7.458a1.92 1.92 0 0 1-3.84 0 1.92 1.92 0 0 1 3.84 0z"/></symbol><symbol id="icon-linkedin" viewBox="0 0 32 32"><path fill="#afb1b8" style="fill:var(--color3, #afb1b8)" d="M31.992 32H32V20.262c0-5.741-1.235-10.163-7.947-10.163-3.227 0-5.392 1.77-6.277 3.45h-.093v-2.914h-6.365v21.363h6.627V21.42c0-2.786.528-5.48 3.978-5.48 3.398 0 3.45 3.179 3.45 5.658V32h6.619zM.528 10.635h6.635V32H.528V10.635zM3.843 0A3.843 3.843 0 0 0 0 3.843c0 2.12 1.722 3.878 3.843 3.878 2.12 0 3.842-1.757 3.842-3.878S5.965.002 3.844 0z"/></symbol><symbol id="icon-Logo1-desktop" viewBox="0 0 57 32"><path fill="#afb1b8" style="fill:var(--color3, #afb1b8)" d="m20.267 3.733 3.738 3.538-6.938-.004v17.167H35.2V17.87l3.733 3.534V3.733H20.266zm14.769 13.722L24.439 7.423h10.597v10.032zm-3.29 4.468h-11.81V10.378h.835v10.763h10.975v.781zm-9.021 4.797-.436.899-.436-.899h-.366l.637 1.198v.698h.331v-.698l.635-1.198h-.364zm.549 1.896.154-.442h.734l.155.442h.344l-.717-1.896h-.296l-.716 1.896h.342zm.52-1.493.275.786h-.549l.275-.787zm1.737.74a.425.425 0 0 0-.071.238v.003c0 .16.056.29.168.389s.263.149.45.149a.784.784 0 0 0 .485-.153l.107.126h.367l-.278-.33a.95.95 0 0 0 .164-.574h-.275a.768.768 0 0 1-.079.348l-.366-.432.129-.094a.724.724 0 0 0 .195-.195l.002-.003a.41.41 0 0 0 .06-.216v-.01a.39.39 0 0 0-.132-.293.477.477 0 0 0-.32-.123h-.02.001c-.153 0-.274.044-.364.13s-.135.203-.135.352c0 .061.014.123.043.189.03.065.082.144.155.237a1.13 1.13 0 0 0-.282.261zm.856.42a.478.478 0 0 1-.299.107h-.015a.31.31 0 0 1-.212-.083.286.286 0 0 1-.085-.203v-.011.001c0-.101.052-.192.156-.271l.041-.029.414.489zm-.34-.84c-.09-.11-.134-.202-.134-.275 0-.063.019-.116.055-.157a.184.184 0 0 1 .139-.063h.015c.052 0 .1.02.135.054a.168.168 0 0 1 .056.126v.007a.234.234 0 0 1-.08.177l-.041.032-.145.099zm3.086 1.03a.689.689 0 0 0 .224-.474h-.328c-.018.135-.059.232-.124.29s-.163.087-.292.087c-.141 0-.249-.054-.323-.162s-.11-.264-.11-.469v-.167c.002-.203.041-.355.117-.46a.386.386 0 0 1 .331-.157c.123 0 .217.03.28.091s.104.158.12.294h.328c-.021-.207-.095-.368-.222-.482s-.296-.171-.506-.171a.717.717 0 0 0-.681.421l-.002.005c-.06.133-.096.288-.096.451v.023-.001.177c.003.174.035.327.098.46s.151.234.266.306a.75.75 0 0 0 .4.107c.216 0 .389-.056.519-.169zm1.936-.266c.064-.141.097-.304.097-.49v-.125c0-.169-.036-.329-.102-.473l.003.007a.728.728 0 0 0-.274-.318l-.003-.002c-.119-.075-.256-.112-.411-.112s-.291.037-.411.113a.738.738 0 0 0-.277.324 1.135 1.135 0 0 0-.098.466v.025-.001.107c.001.181.034.341.099.48a.752.752 0 0 0 .279.322.764.764 0 0 0 .411.112.755.755 0 0 0 .412-.112.737.737 0 0 0 .276-.323zm-.353-1.072c.08.112.119.274.119.484v.099c0 .213-.039.376-.118.487a.386.386 0 0 1-.336.167h-.014a.393.393 0 0 1-.324-.17l-.001-.001c-.081-.114-.121-.275-.121-.483v-.109c.002-.204.043-.362.122-.473a.39.39 0 0 1 .321-.168h.014-.001a.39.39 0 0 1 .338.168z"/></symbol><symbol id="icon-Logo2" viewBox="0 0 57 32"><path fill="#afb1b8" style="fill:var(--color3, #afb1b8)" d="M26.654 3.699h.073c.135 0 .281.013.425.026.636.045 1.268.14 1.889.285V2.483a11.192 11.192 0 0 0-1.949-.311c-.22-.017-.494-.031-.77-.038h-.246c-1.32.005-2.635.174-3.913.505a15.85 15.85 0 0 0-4.151 1.689v15.145a16.42 16.42 0 0 1 3.84-1.517l.117-.026c.973-.26 2.109-.442 3.276-.508l.046-.002h.045c.188-.01.375-.015.568-.016v-1.552a18.41 18.41 0 0 0-4.445.602l.128-.029c-.523.136-1.027.283-1.5.445l-.54.183V5.244l.23-.111c1.638-.796 3.549-1.311 5.568-1.429l.041-.002.025-.001.026.001h-.001c.214-.011.43-.016.642-.016h.243c.112.003.224.005.336.012z"/><path fill="#afb1b8" style="fill:var(--color3, #afb1b8)" d="M30.459 5.298h-.014c-.793 0-1.57-.067-2.326-.195l.081.011c-.24-.041-.476-.09-.706-.142v14.972c.971.24 1.968.357 2.969.35a16.007 16.007 0 0 0 4.024-.528l-.111.025c1.574-.4 2.957-.979 4.226-1.729l-.074.04V3.227a16.465 16.465 0 0 1-3.838 1.517l-.118.026a16.743 16.743 0 0 1-4.114.528zm5.986.258.54-.181v11.812l-.23.111c-.783.384-1.701.723-2.657.969l-.103.022a14.31 14.31 0 0 1-3.531.457c-.356 0-.709-.015-1.052-.045l-.37-.033V6.52l.43.029c.284.019.616.03.951.03h.04-.002a18.288 18.288 0 0 0 4.611-.604l-.127.029a23.639 23.639 0 0 0 1.5-.449zM19.06 24.646a.794.794 0 0 0-.573-.243l-.029.001h.001-.012a.888.888 0 0 0-.34.067l.006-.002a.785.785 0 0 0-.442.444l-.002.005a.874.874 0 0 0-.062.335v2.023a.957.957 0 0 0 .079.415.721.721 0 0 0 .48.415c.099.027.201.042.302.042a.854.854 0 0 0 .838-.851v-.226h-.529v.191a.475.475 0 0 1-.033.173l.001-.003a.315.315 0 0 1-.077.114.367.367 0 0 1-.221.077.265.265 0 0 1-.247-.108l-.001-.001a.478.478 0 0 1-.071-.251v-.021.001-1.887a.643.643 0 0 1 .065-.302.27.27 0 0 1 .227-.124l.033.002h-.001.01c.092 0 .174.045.226.114l.001.001a.425.425 0 0 1 .088.261v.011-.001.175h.523v-.215a.95.95 0 0 0-.067-.351l.002.006a.838.838 0 0 0-.177-.285zm3.142-.022a.924.924 0 0 0-.918-.166.836.836 0 0 0-.482.443l-.002.005a.956.956 0 0 0-.077.392v1.94a.917.917 0 0 0 .077.397.782.782 0 0 0 .205.271.837.837 0 0 0 .279.171.91.91 0 0 0 .919-.172l-.001.001a.831.831 0 0 0 .199-.271.934.934 0 0 0 .077-.397v-1.959a.947.947 0 0 0-.079-.38l.002.006a.876.876 0 0 0-.199-.283zm-.247 2.615.001.03a.346.346 0 0 1-.107.251.387.387 0 0 1-.498-.001h.001a.345.345 0 0 1-.106-.251l.001-.032v.001-1.941l-.001-.029c0-.099.041-.188.106-.251a.387.387 0 0 1 .498.001h-.001a.346.346 0 0 1 .107.251l-.001.031v-.001 1.941zm4.374.868v-3.675h-.508l-.668 1.945h-.01l-.673-1.945h-.503v3.674h.525v-2.235h.01l.514 1.58h.261l.518-1.58h.009v2.235h.525zm2.982-3.417a.727.727 0 0 0-.297-.201 1.153 1.153 0 0 0-.361-.057h-.8v3.675h.524v-1.435h.27a.966.966 0 0 0 .472-.1.779.779 0 0 0 .286-.278l.002-.003a.893.893 0 0 0 .12-.32 2.56 2.56 0 0 0 .028-.385v-.035.002a2.107 2.107 0 0 0-.051-.525.789.789 0 0 0-.193-.338zm-.27 1.12a.464.464 0 0 1-.049.194l.001-.003a.296.296 0 0 1-.134.128l-.002.001a.525.525 0 0 1-.22.047l-.028-.001h.001-.239v-1.249h.27l.025-.001c.077 0 .149.017.214.048l-.003-.001a.299.299 0 0 1 .122.134l.001.002a.537.537 0 0 1 .046.205v.244c0 .085.005.174 0 .252h-.005zm2.749-1.378h-.429l-.81 3.675h.524l.154-.789h.714l.154.789h.523l-.83-3.675zm-.482 2.385.258-1.332h.01l.256 1.332h-.523zm3.865-.172h-.01l-.791-2.213h-.503v3.675h.523v-2.21h.011l.8 2.209h.493v-3.674h-.523v2.213zm3.199-2.213-.421 1.461h-.011l-.421-1.461h-.554l.719 2.122v1.553h.524v-1.553l.719-2.121h-.555zM17.6 29.144h.252v.708h.171v-.708h.251v-.145H17.6v.146zm2.121-.146-.331.853h.182l.07-.194h.34l.073.194h.187l-.339-.853h-.182zm-.027.516.116-.316.116.316h-.232zm2.124.023h.197v.11a.326.326 0 0 1-.203.072H21.8a.218.218 0 0 1-.169-.081.352.352 0 0 1-.063-.203l.001-.02v.001c0-.19.082-.285.245-.285l.018-.001a.18.18 0 0 1 .174.136v.001l.169-.033c-.036-.166-.156-.251-.362-.251h-.011a.43.43 0 0 0-.287.11.415.415 0 0 0-.123.329v-.001.02c0 .115.041.22.11.301l-.001-.001a.411.411 0 0 0 .297.126l.027-.001h-.001.014a.51.51 0 0 0 .348-.137v-.336h-.37v.144zm2.14-.539h-.172v.853h.597v-.145h-.425v-.708zm1.812 0h-.173v.853h.173v-.853zm1.769.57-.349-.57h-.167v.853h.161v-.557l.343.557h.171v-.853h-.158v.57zm1.601-.092h.425v-.145h-.425v-.187h.457v-.146h-.63v.853h.647v-.145h-.475v-.231zm3.88-.141h-.336v-.336h-.171v.853h.171v-.373h.336v.373h.171v-.853h-.171v.337zm1.609.141h.427v-.145h-.427v-.187h.459v-.146h-.629v.853h.646v-.145h-.475v-.231zm2.183 0c.149-.023.224-.102.224-.237l.001-.024a.203.203 0 0 0-.084-.165h-.001a.478.478 0 0 0-.216-.051l-.035.001h.002-.362v.853h.171v-.357h.048c.034 0 .066.007.094.02l-.001-.001a.181.181 0 0 1 .061.062l.186.271h.205l-.103-.166a.598.598 0 0 0-.187-.203l-.002-.001zm-.172-.118h-.127v-.214h.135l.036-.001c.049 0 .097.008.141.023l-.003-.001a.11.11 0 0 1 .038.083.108.108 0 0 1-.014.053V29.3a.114.114 0 0 1-.032.037.464.464 0 0 1-.142.021l-.033-.001h.001zm1.819.118h.425v-.145h-.425v-.187h.459v-.146h-.631v.853h.647v-.145h-.475v-.231z"/></symbol><symbol id="icon-Logo3" viewBox="0 0 57 32"><path fill="#afb1b8" style="fill:var(--color3, #afb1b8)" d="M20.451 27.091a.06.06 0 0 1 .043.018l.109.115a.894.894 0 0 1-.309.218 1.106 1.106 0 0 1-.437.078h-.022a1.07 1.07 0 0 1-.397-.076l.007.003a.894.894 0 0 1-.508-.52l-.002-.006a1.131 1.131 0 0 1-.069-.394v-.016.001-.017c0-.142.027-.277.077-.401l-.003.007a.956.956 0 0 1 .213-.318.95.95 0 0 1 .329-.208c.135-.05.279-.075.423-.073.135-.003.269.019.394.067.108.045.208.107.295.184l-.092.123a.08.08 0 0 1-.023.022.058.058 0 0 1-.032.01h-.005a.08.08 0 0 1-.04-.014l-.05-.033-.069-.042a.717.717 0 0 0-.212-.072l-.005-.001a.873.873 0 0 0-.15-.013h-.014.001-.011a.823.823 0 0 0-.299.056l.006-.002a.686.686 0 0 0-.239.155.728.728 0 0 0-.155.245.9.9 0 0 0-.057.324.91.91 0 0 0 .057.33c.034.09.085.173.152.244a.622.622 0 0 0 .228.152.76.76 0 0 0 .283.052c.056.001.112-.003.167-.011a.645.645 0 0 0 .362-.168.076.076 0 0 1 .052-.021zm3.169-.579c.002.139-.023.277-.074.407a.902.902 0 0 1-.206.316.935.935 0 0 1-.318.205l-.006.002a1.228 1.228 0 0 1-.843-.003l.008.003a.928.928 0 0 1-.529-.52l-.002-.006a1.146 1.146 0 0 1 .003-.822l-.003.008a.936.936 0 0 1 .208-.32.95.95 0 0 1 .316-.198l.007-.002a1.185 1.185 0 0 1 .842.002l-.008-.003a.913.913 0 0 1 .531.523c.051.131.076.269.075.409zm-.288 0v-.017a.945.945 0 0 0-.054-.316l.002.007a.646.646 0 0 0-.374-.397l-.004-.002a.864.864 0 0 0-.612.002l.006-.002a.644.644 0 0 0-.378.394l-.001.005a1.059 1.059 0 0 0 0 .654c.062.184.2.327.375.396l.004.002a.913.913 0 0 0 .606 0 .64.64 0 0 0 .379-.397.937.937 0 0 0 .052-.327zm2.449.343.029.073c.011-.026.02-.05.031-.073a.476.476 0 0 1 .038-.075l-.002.003.701-1.214c.014-.021.026-.034.04-.038s.031-.007.047-.007h.218v1.974h-.245v-1.513l-.001-.034.001-.036v.002l-.705 1.231a.111.111 0 0 1-.041.045.116.116 0 0 1-.059.016h-.041c-.021.001-.043-.005-.06-.016s-.032-.026-.041-.044v-.001l-.725-1.239v1.586h-.237v-1.971h.217c.017 0 .033.002.049.007h-.001a.08.08 0 0 1 .038.037l.716 1.215c.013.02.025.043.035.068l.001.003zm2.639-.098v.739h-.274v-1.971h.635c.113 0 .223.016.326.045l-.008-.002a.66.66 0 0 1 .242.123c.061.053.108.12.137.194a.643.643 0 0 1 .046.252.595.595 0 0 1-.051.252.557.557 0 0 1-.147.197l-.001.001a.663.663 0 0 1-.238.129l-.005.001a1.06 1.06 0 0 1-.331.046l-.332-.005zm0-.212h.332a.694.694 0 0 0 .213-.03.438.438 0 0 0 .154-.086l-.001.001a.344.344 0 0 0 .092-.128l.001-.002a.403.403 0 0 0 .033-.161v-.005l.001-.02a.35.35 0 0 0-.029-.142l.001.002a.386.386 0 0 0-.096-.135.548.548 0 0 0-.327-.108l-.044.002h.002-.332v.813zm3.687.954h-.221a.102.102 0 0 1-.057-.018.12.12 0 0 1-.035-.045v-.001l-.187-.477h-.937l-.194.477a.107.107 0 0 1-.034.044.097.097 0 0 1-.058.02h-.22l.823-1.975h.285l.834 1.975zm-1.358-.733h.774l-.326-.804a1.29 1.29 0 0 1-.06-.176l-.002-.01-.032.103a1.131 1.131 0 0 1-.032.09l.002-.006-.324.802zm2.543-1.233c.017.009.03.021.042.036l1.2 1.488v-1.532h.245V27.5H34.638a.118.118 0 0 1-.053-.012h.001a.158.158 0 0 1-.044-.037l-1.199-1.487a.77.77 0 0 1 0 .068V27.5h-.245v-1.975h.145c.017 0 .034.003.049.009zm3.51 1.181v.784h-.275v-.784l-.758-1.189h.25c.02 0 .039.006.054.017a.173.173 0 0 1 .037.044v.001l.475.767c.032.05.061.108.082.169l.002.006.036-.085a.642.642 0 0 1 .047-.09l.468-.772a.182.182 0 0 1 .036-.042.087.087 0 0 1 .054-.019h.253l-.76 1.195zM25.646 22.21c.119.014.24.027.362.037 1.851-.789 3.417-2.08 4.502-3.712s1.641-3.533 1.598-5.465l-2.04-1.943c.135.641.213 1.377.213 2.131 0 1.444-.284 2.822-.799 4.08l.026-.072a11.35 11.35 0 0 1-3.862 4.944z"/><path fill="#afb1b8" style="fill:var(--color3, #afb1b8)" d="m24.917 22.12.055.011c1.863-1.27 3.284-3.044 4.079-5.091.449-1.121.71-2.42.71-3.78 0-.929-.122-1.83-.35-2.687l.016.073-2.905-2.768c.909 1.717 1.443 3.754 1.443 5.915 0 .503-.029.999-.085 1.487l.006-.059a13.06 13.06 0 0 1-2.969 6.9zm9.854-6.767c-.494 2.123-1.692 4.036-3.419 5.458-.476.397-1.008.764-1.57 1.082l-.054.028a9.726 9.726 0 0 0 3.787-2.043l-.011.01a9.14 9.14 0 0 0 2.422-3.353l.022-.06-1.179-1.122z"/><path fill="#afb1b8" style="fill:var(--color3, #afb1b8)" d="m34.309 15.04-1.678-1.598a9.81 9.81 0 0 1-1.598 5.195l.023-.038a10.518 10.518 0 0 1-4.106 3.682h.009c.376 0 .752-.021 1.126-.064a10.37 10.37 0 0 0 4.049-2.831l.01-.012a9.608 9.608 0 0 0 2.154-4.27l.012-.064zm-9.148-8.331L23.159 4.8c-1.789.659-3.328 1.817-4.415 3.323s-1.672 3.289-1.677 5.116c.007 2.02.72 3.979 2.027 5.569s3.133 2.718 5.19 3.208c1.836-2.131 2.91-4.764 3.068-7.516s-.61-5.481-2.192-7.79zm13.772 8.037c-.007-2.396-1.009-4.692-2.788-6.386s-4.188-2.649-6.702-2.656a9.796 9.796 0 0 0-3.398.603l12.254 11.675a8.421 8.421 0 0 0 .634-3.234v-.001z"/></symbol><symbol id="icon-Logo4" viewBox="0 0 57 32"><path fill="#2196f3" style="fill:var(--color2, #2196f3)" d="M13.548 11.643h-.001c-1.206 0-2.185.954-2.185 2.129v.002c0 1.175.978 2.129 2.185 2.129h.002c1.206 0 2.185-.954 2.185-2.129v-.002c0-1.175-.978-2.129-2.185-2.129zm16.125-.68a6.1 6.1 0 0 0-1.856-4.354 6.424 6.424 0 0 0-8.935-.001 6.093 6.093 0 0 0-1.856 4.355v9.005s12.645-1.372 12.647-9.004v-.001zM6.933 22.924a4.23 4.23 0 0 0 1.291 3.028l.001.001a4.454 4.454 0 0 0 3.108 1.26 4.458 4.458 0 0 0 3.108-1.26l-.001.001a4.235 4.235 0 0 0 1.293-3.027v-6.268s-8.799.957-8.799 6.266zm4.4 1.122h-.002c-.237 0-.458-.07-.643-.192l.004.003a1.125 1.125 0 0 1-.422-.497l-.003-.007a1.084 1.084 0 0 1-.063-.656l-.001.007c.048-.227.159-.423.314-.575a1.16 1.16 0 0 1 .583-.306l.007-.001c.223-.044.455-.021.666.064s.39.229.517.413a1.098 1.098 0 0 1 .104 1.062l.003-.007a1.127 1.127 0 0 1-.623.61 1.164 1.164 0 0 1-.442.086h-.001v-.004zm8.982-.696h-.9v.93h-.469v-2.274h1.482v.38h-1.012v.587h.9v.379zm2.252-.156c0 .224-.039.42-.119.589a.896.896 0 0 1-.829.528H21.6h.001a.946.946 0 0 1-.505-.136.911.911 0 0 1-.341-.382l-.002-.006a1.322 1.322 0 0 1-.124-.563v-.02.001-.113c0-.224.04-.421.121-.591a.9.9 0 0 1 .849-.53c.19 0 .357.046.505.138a.888.888 0 0 1 .342.392c.082.17.122.366.122.589v.101zm-.474-.103c0-.238-.043-.42-.128-.544a.417.417 0 0 0-.348-.186h-.019.001-.018a.419.419 0 0 0-.346.183l-.001.001c-.085.122-.129.301-.13.537v.111c0 .233.043.413.128.541s.208.192.369.192h.018a.413.413 0 0 0 .343-.183l.001-.001c.084-.124.127-.304.128-.541v-.111zm1.994.592v-.013a.24.24 0 0 0-.093-.189h-.001a1.185 1.185 0 0 0-.338-.15c-.15-.047-.278-.1-.4-.163l.014.006c-.258-.14-.387-.327-.387-.564a.55.55 0 0 1 .103-.329.691.691 0 0 1 .299-.227 1.13 1.13 0 0 1 .437-.081c.163 0 .307.03.435.089s.225.141.295.249a.647.647 0 0 1 .107.366h-.469a.304.304 0 0 0-.098-.242.4.4 0 0 0-.277-.088.428.428 0 0 0-.267.074.229.229 0 0 0-.096.186v.006c0 .074.037.135.111.186s.185.097.33.141c.267.08.461.18.583.299s.182.267.182.443c0 .197-.075.352-.223.464s-.349.167-.602.167c-.175 0-.334-.032-.478-.095a.773.773 0 0 1-.328-.262l-.002-.002a.668.668 0 0 1-.113-.374v-.014.001h.47c0 .251.15.377.45.377a.438.438 0 0 0 .261-.067.224.224 0 0 0 .094-.182v-.009zm2.502-1.298h-.697v1.895h-.469v-1.895h-.687v-.38h1.853v.38zm1.638.909h-.9v.609h1.056v.377h-1.525v-2.274h1.522v.38h-1.053v.542h.9v.367zm1.273.153h-.373v.833h-.469v-2.274h.846c.269 0 .476.06.622.18s.219.289.219.508a.705.705 0 0 1-.101.389.687.687 0 0 1-.301.245l-.005.002.492.93v.022h-.503l-.427-.833zm-.373-.38h.378a.39.39 0 0 0 .273-.089.325.325 0 0 0 .098-.232v-.018.001a.34.34 0 0 0-.092-.253c-.06-.062-.154-.092-.279-.092h-.377v.683zm2.84.411v.802h-.469v-2.274h.887c.171 0 .321.031.45.094.13.062.23.151.3.267s.105.245.105.393a.655.655 0 0 1-.23.528c-.152.128-.363.192-.633.192h-.411zm0-.379h.419c.124 0 .219-.029.283-.088.066-.058.099-.141.099-.25v-.016a.376.376 0 0 0-.099-.254.371.371 0 0 0-.272-.107h-.429v.715zm2.966.195h-.9v.609h1.056v.377h-1.525v-2.274h1.522v.38h-1.053v.542h.9v.367zm2.175-.909h-.698v1.895h-.469v-1.895h-.687v-.38h1.853v.38zm1.638.909h-.9v.609h1.056v.377h-1.524v-2.274H38.9v.38h-1.053v.542h.9v.367zm1.273.153h-.373v.833h-.469v-2.274h.845c.269 0 .476.06.622.18s.219.289.219.508a.705.705 0 0 1-.101.389.69.69 0 0 1-.3.245l-.005.002.492.93v.022h-.503l-.427-.833zm-.373-.38h.378c.118 0 .209-.03.274-.089a.324.324 0 0 0 .097-.232v-.018.001a.343.343 0 0 0-.092-.253c-.06-.062-.154-.092-.28-.092h-.377v.683zm2.755.616v-.013a.237.237 0 0 0-.094-.189h-.001a1.198 1.198 0 0 0-.338-.15c-.15-.047-.278-.1-.4-.163l.014.006c-.258-.14-.387-.327-.387-.564 0-.123.034-.233.103-.329s.169-.172.299-.227a1.13 1.13 0 0 1 .437-.081c.163 0 .307.03.434.089s.226.141.295.249a.647.647 0 0 1 .107.366h-.469a.304.304 0 0 0-.098-.242.4.4 0 0 0-.277-.088.426.426 0 0 0-.267.074.229.229 0 0 0-.096.186v.006c0 .074.037.135.111.186s.185.097.33.141c.267.08.461.18.583.299s.182.267.182.443c0 .197-.075.352-.223.464s-.349.167-.602.167c-.175 0-.334-.032-.478-.095a.773.773 0 0 1-.328-.262l-.002-.002a.668.668 0 0 1-.113-.374v-.014.001h.47c0 .251.149.377.45.377a.438.438 0 0 0 .261-.067.224.224 0 0 0 .094-.182v-.01z"/></symbol><symbol id="icon-Logo4-desktop" viewBox="0 0 57 32"><path fill="#2196f3" style="fill:var(--color2, #2196f3)" d="M12.878 11.255h-.002c-1.279 0-2.316.921-2.316 2.058v.002c0 1.137 1.037 2.058 2.316 2.058h.002c1.279 0 2.316-.922 2.316-2.058v-.001c0-1.137-1.037-2.059-2.316-2.059zm17.093-.658c-.004-1.579-.711-3.092-1.967-4.209s-2.958-1.745-4.734-1.749c-1.777.003-3.481.631-4.737 1.748s-1.964 2.63-1.968 4.209v8.706s13.405-1.326 13.406-8.704v-.002zM5.867 22.16c.003 1.099.496 2.151 1.37 2.928s2.058 1.214 3.294 1.218c1.236-.003 2.42-.441 3.294-1.218s1.366-1.829 1.37-2.927v-6.058s-9.327.924-9.327 6.057zm4.663 1.085c-.242 0-.477-.064-.678-.183a1.133 1.133 0 0 1-.447-.481l-.003-.007a.951.951 0 0 1-.068-.634l-.001.007c.047-.211.163-.404.334-.556s.388-.255.625-.297a1.363 1.363 0 0 1 .715.064l-.009-.003c.223.083.414.221.548.4s.206.388.206.603v.003c0 .15-.034.293-.094.42l.003-.006a1.095 1.095 0 0 1-.263.352l-.001.001a1.259 1.259 0 0 1-.397.237 1.34 1.34 0 0 1-.466.083h-.002v-.004zm9.426-.598h-.9v.93h-.469v-2.276h1.482v.38h-1.013v.588h.9v.378zm2.253-.156c0 .224-.039.42-.118.589a.893.893 0 0 1-.83.529h-.019.001a.948.948 0 0 1-.505-.136.917.917 0 0 1-.341-.382l-.002-.006a1.319 1.319 0 0 1-.123-.561v-.021.001-.112c0-.224.04-.421.12-.591a.901.901 0 0 1 .848-.53c.19 0 .357.046.505.138a.888.888 0 0 1 .342.392c.081.17.122.366.122.589v.101zm-.475-.103c0-.238-.043-.42-.128-.544a.417.417 0 0 0-.348-.186h-.019.001-.018a.419.419 0 0 0-.346.183l-.001.001c-.085.122-.128.301-.13.538v.111c0 .232.043.412.128.541s.209.192.369.192h.018a.416.416 0 0 0 .344-.183l.001-.002c.084-.124.127-.304.128-.541v-.111zm1.995.592v-.013a.24.24 0 0 0-.093-.189h-.001a1.185 1.185 0 0 0-.338-.15 2.44 2.44 0 0 1-.399-.163l.014.006c-.259-.14-.388-.328-.388-.564 0-.123.035-.233.103-.328.069-.097.169-.172.299-.227s.276-.081.437-.081c.162 0 .307.029.434.089a.677.677 0 0 1 .295.249.646.646 0 0 1 .107.365h-.469c0-.104-.032-.185-.098-.242a.4.4 0 0 0-.276-.087.426.426 0 0 0-.267.074.228.228 0 0 0-.096.185v.006c0 .074.037.136.111.186.075.05.185.097.33.14.267.08.461.18.583.299s.183.267.183.444c0 .197-.075.352-.224.464s-.349.167-.601.167c-.175 0-.334-.032-.478-.096a.77.77 0 0 1-.328-.261l-.002-.002a.672.672 0 0 1-.112-.373v-.015.001h.47c0 .251.15.377.45.377a.442.442 0 0 0 .261-.067.223.223 0 0 0 .093-.182v-.009zm2.502-1.298h-.697v1.895h-.469v-1.895h-.686v-.38h1.853v.38zm1.637.909h-.9v.61h1.056v.377h-1.525v-2.276h1.522v.38h-1.053v.542h.9v.367zm1.274.153h-.373v.833H28.3v-2.276h.845c.269 0 .476.06.622.18s.219.289.219.508a.705.705 0 0 1-.101.389.69.69 0 0 1-.3.245l-.005.002.492.93v.021h-.503l-.427-.832zm-.373-.38h.379a.387.387 0 0 0 .273-.089.323.323 0 0 0 .097-.231v-.018.001c0-.108-.03-.192-.092-.253s-.154-.092-.28-.092h-.377v.683zm2.84.411v.802h-.469v-2.276h.888c.171 0 .321.031.45.094.13.062.23.151.3.267a.746.746 0 0 1 .105.392.657.657 0 0 1-.229.528c-.153.128-.363.193-.633.193h-.411zm0-.379h.419c.124 0 .219-.029.283-.087a.317.317 0 0 0 .099-.25v-.017a.372.372 0 0 0-.099-.254.37.37 0 0 0-.272-.106h-.43v.715zm2.965.195h-.9v.61h1.056v.377h-1.525v-2.276h1.522v.38h-1.053v.542h.9v.367zm2.176-.909h-.697v1.895h-.469v-1.895h-.687v-.38h1.853v.38zm1.637.909h-.899v.61h1.056v.377h-1.525v-2.276h1.522v.38h-1.053v.542h.9v.367zm1.274.153h-.373v.833h-.469v-2.276h.846c.269 0 .476.06.622.18s.219.289.219.508a.705.705 0 0 1-.101.389.687.687 0 0 1-.301.245l-.005.002.492.93v.021h-.503l-.427-.832zm-.374-.38h.378c.117 0 .209-.029.273-.089a.324.324 0 0 0 .097-.232v-.018.001a.338.338 0 0 0-.092-.253c-.06-.061-.154-.092-.279-.092h-.377v.683zm2.755.616v-.013a.237.237 0 0 0-.094-.189h-.001a1.185 1.185 0 0 0-.338-.15c-.15-.047-.278-.1-.399-.163l.014.006c-.259-.14-.388-.328-.388-.564 0-.123.035-.233.103-.328a.691.691 0 0 1 .299-.227 1.13 1.13 0 0 1 .437-.081c.163 0 .307.029.435.089a.677.677 0 0 1 .295.249.646.646 0 0 1 .107.365h-.469c0-.104-.032-.185-.098-.242a.4.4 0 0 0-.276-.087.426.426 0 0 0-.267.074.228.228 0 0 0-.096.185v.006c0 .074.037.136.111.186.075.05.185.097.33.14.267.08.461.18.583.299s.183.267.183.444a.549.549 0 0 1-.224.464c-.148.111-.349.167-.601.167-.175 0-.334-.032-.478-.096a.77.77 0 0 1-.328-.261l-.002-.002a.672.672 0 0 1-.112-.373v-.015.001h.47c0 .251.15.377.45.377a.442.442 0 0 0 .261-.067.223.223 0 0 0 .093-.182v-.009z"/></symbol><symbol id="icon-Logo5-desktop" viewBox="0 0 57 32"><path fill="#afb1b8" style="fill:var(--color3, #afb1b8)" d="M14.27 23.859a.768.768 0 0 1 .197.56.756.756 0 0 1-.073.326l.002-.005a.83.83 0 0 1-.232.296l-.002.001a1.39 1.39 0 0 1-.885.24h.004-1.549v-3.301h1.517a1.377 1.377 0 0 1 .846.222l-.005-.003c.098.076.176.171.227.277s.074.224.068.341a.722.722 0 0 1-.176.505.842.842 0 0 1-.462.258.893.893 0 0 1 .523.283zm-1.816-.498h.649a.655.655 0 0 0 .412-.11.386.386 0 0 0 .109-.144l.001-.003a.358.358 0 0 0 .03-.145l-.001-.033v.001l.001-.028a.376.376 0 0 0-.031-.15l.001.002a.41.41 0 0 0-.108-.147h-.001a.665.665 0 0 0-.373-.113l-.054.002h.002-.638v.867zm1.124 1.266a.407.407 0 0 0 .118-.149l.001-.003a.37.37 0 0 0 .034-.158l-.001-.027v.001l.001-.024a.38.38 0 0 0-.037-.165l.001.002a.41.41 0 0 0-.121-.151l-.001-.001a.706.706 0 0 0-.398-.121l-.045.001h.002-.68v.908h.689a.727.727 0 0 0 .435-.115zm3.793.651-.843-1.291h-.317v1.291h-.726v-3.302h1.374a1.433 1.433 0 0 1 .96.284l-.004-.003c.192.179.308.415.327.666s-.061.499-.225.701c-.17.175-.396.296-.649.335l-.006.001.899 1.319h-.789zm-1.161-1.74h.594c.412 0 .619-.166.619-.5l.001-.027a.464.464 0 0 0-.035-.176l.001.003a.494.494 0 0 0-.118-.171.68.68 0 0 0-.47-.133h.003-.601l.007 1.005zm5.129 1.075h-1.446l-.255.665h-.761l1.328-3.265h.823l1.323 3.265h-.761l-.25-.665zm-.194-.499-.529-1.394-.529 1.394h1.057zm5.16 1.164h-.72l-1.616-2.245v2.245h-.719v-3.302h.719l1.616 2.259v-2.259h.72v3.302zm4.112-.79a1.496 1.496 0 0 1-.652.582c-.28.132-.608.209-.954.209l-.062-.001h.003-1.282v-3.302h1.283l.058-.001c.346 0 .674.075.97.21l-.015-.006c.275.127.503.328.651.576a1.78 1.78 0 0 1 0 1.732zm-.824-.079c.205-.22.318-.499.318-.788a1.147 1.147 0 0 0-.319-.788 1.317 1.317 0 0 0-.905-.281h.004-.501v2.138h.5a1.326 1.326 0 0 0 .905-.282l-.003.002zm-7.803-20.8s9.3 3.215 9.103 7.867v7.869s-9.293-3.217-9.1-7.869l-.003-7.867zm17.389 13.894a13.494 13.494 0 0 1 5.909-1.994v-2.464c-2.444.863-4.517 2.427-5.909 4.458z"/><path fill="#afb1b8" style="fill:var(--color3, #afb1b8)" d="M38.123 18.245c1.438-2.651 3.931-4.697 6.965-5.716V5.431s-13.245 4.58-12.965 11.205v11.203s.59-.205 1.519-.589c0-.358 0-.719.042-1.083.274-3.076 1.871-5.925 4.44-7.924z"/><path fill="#afb1b8" style="fill:var(--color3, #afb1b8)" d="M36.864 22.407c.078-.847.241-1.626.484-2.369l-.021.076c-1.599 1.725-2.568 3.867-2.769 6.122-.02.213-.03.426-.036.645a36.83 36.83 0 0 0 2.761-1.333l-.213.104a10.624 10.624 0 0 1-.206-3.244zm.526.04a10.256 10.256 0 0 0 .175 3.003l-.012-.066c3.619-1.983 7.685-5.046 7.528-8.748v-.323c-2.586.265-5.004 1.3-6.885 2.946a10.02 10.02 0 0 0-.804 3.148l-.003.04z"/></symbol><symbol id="icon-Logo6" viewBox="0 0 57 32"><path fill="#afb1b8" style="fill:var(--color3, #afb1b8)" d="M28.661 15.122a1.727 1.727 0 0 1-.303-1.102v.005-1.59c0-.488.101-.859.302-1.112s.548-.38 1.039-.379c.461 0 .789.108.983.324a1.4 1.4 0 0 1 .29.951v.373h-.825v-.379l.001-.049c0-.113-.009-.225-.026-.333l.002.012a.367.367 0 0 0-.118-.22.444.444 0 0 0-.264-.087l-.037.001h.002l-.035-.001a.465.465 0 0 0-.281.093l.001-.001a.44.44 0 0 0-.137.24v.003c-.023.13-.034.261-.032.393v1.931c-.013.186.023.372.106.542a.393.393 0 0 0 .163.131l.003.001a.409.409 0 0 0 .215.03h-.002l.034.001a.411.411 0 0 0 .259-.09l-.001.001a.396.396 0 0 0 .122-.232v-.002c.02-.128.028-.258.026-.387v-.392h.825v.357a1.548 1.548 0 0 1-.289 1.006l.003-.005c-.189.236-.513.354-.988.354s-.834-.126-1.038-.388zm3.438.016c-.209-.248-.313-.609-.313-1.086v-1.674c0-.473.105-.83.313-1.073s.557-.364 1.046-.363c.485 0 .832.121 1.041.363.208.243.315.6.315 1.073v1.674c0 .473-.107.835-.318 1.084s-.557.373-1.037.373c-.48 0-.836-.126-1.046-.372zm1.431-.401a1 1 0 0 0 .099-.495v-2.049a.978.978 0 0 0-.1-.491l.003.006a.396.396 0 0 0-.166-.132l-.003-.001a.404.404 0 0 0-.22-.029h.002a.418.418 0 0 0-.222.03l.003-.001a.41.41 0 0 0-.169.132l-.001.001a.96.96 0 0 0-.099.485v2.058a.977.977 0 0 0 .099.495.503.503 0 0 0 .171.121l.003.001a.525.525 0 0 0 .428-.001l-.003.001a.53.53 0 0 0 .174-.122v-.01zm1.963-3.745h.889l.668 3.088.684-3.088h.865l.087 4.457h-.638l-.069-3.097-.66 3.097h-.513l-.684-3.108-.063 3.108h-.646l.08-4.456zm4.19 0h1.385c.798 0 1.197.422 1.197 1.266 0 .808-.42 1.211-1.26 1.211h-.472v1.98h-.854l.005-4.456zm1.183 1.905a.609.609 0 0 0 .47-.14.776.776 0 0 0 .123-.503l.001-.05c0-.126-.015-.248-.044-.365l.002.01a.342.342 0 0 0-.063-.123l.001.001a.378.378 0 0 0-.106-.089l-.002-.001a.8.8 0 0 0-.336-.072l-.048.001h.002-.332v1.331h.332zm2.631-1.905h.918l.942 4.457h-.797l-.186-1.028h-.819l-.192 1.028h-.808l.942-4.456zm.784 2.913-.32-1.871-.319 1.871h.639zm1.836-2.913h.598l1.145 2.542v-2.542h.709v4.456H48l-1.152-2.654v2.654h-.733l.002-4.456zm4.114 2.757-.953-2.751h.802l.581 1.767.545-1.767h.784l-.94 2.751v1.699h-.82v-1.699zm-20.25 3.648v.233h-.698v1.811h-.292V17.63h-.701v-.233h1.691zm2.186 2.044h-.232a.09.09 0 0 1-.058-.02.11.11 0 0 1-.037-.046v-.001l-.202-.485h-.967l-.202.485a.136.136 0 0 1-.031.055.096.096 0 0 1-.058.019h-.23l.855-2.043h.297l.865 2.035zm-1.415-.759h.807l-.341-.832a1.275 1.275 0 0 1-.061-.181l-.003-.011-.032.108-.031.085-.339.83zm2.889.558c.053.003.107.003.16 0a.916.916 0 0 0 .137-.025.83.83 0 0 0 .13-.04l-.007.002c.037-.014.075-.032.115-.05v-.459H33.83a.067.067 0 0 1-.043-.016.048.048 0 0 1-.017-.036v-.158h.663v.783c-.103.07-.223.127-.352.164l-.009.002c-.06.018-.133.033-.207.042l-.007.001c-.074.008-.16.013-.246.013H33.599c-.151 0-.296-.028-.429-.079l.008.003a1.033 1.033 0 0 1-.342-.214h.001a.992.992 0 0 1-.218-.317l-.002-.006a1.08 1.08 0 0 1-.078-.409v-.015.001-.014c0-.149.028-.291.08-.421l-.003.008a.937.937 0 0 1 .22-.324c.098-.092.214-.164.342-.212.147-.052.302-.078.458-.076.08 0 .159.006.238.018a1.08 1.08 0 0 1 .374.133c.053.032.102.068.149.107l-.083.126a.08.08 0 0 1-.027.028.084.084 0 0 1-.039.011.103.103 0 0 1-.053-.016.986.986 0 0 1-.088-.05l.004.002a.704.704 0 0 0-.11-.054l-.005-.002a.964.964 0 0 0-.151-.044l-.006-.001a1.194 1.194 0 0 0-.205-.018h-.012.001-.01a.929.929 0 0 0-.326.059l.006-.002a.706.706 0 0 0-.251.162.721.721 0 0 0-.159.254 1.033 1.033 0 0 0 .002.689l-.002-.007a.723.723 0 0 0 .171.258c.07.07.155.125.25.162a.904.904 0 0 0 .339.041zm2.724-.033h.933v.233h-1.219v-2.044h.292l-.007 1.811zm1.905.233h-.293v-2.043h.293v2.044zm1.087-2.034c.017.01.032.022.044.037l1.25 1.541-.001-.037.001-.038v.002-1.523h.255v2.052h-.157a.122.122 0 0 1-.054-.012h.001a.157.157 0 0 1-.046-.039l-1.248-1.539v1.589h-.244v-2.043h.152c.017 0 .033.003.048.01zm3.7-.009v.225h-1.036v.675h.839v.217h-.839v.698h1.036v.225H41.72v-2.039h1.337zM12.428 4.775l12.979 3.489v12.225l-12.978-3.486V4.776zm-.831-1.042v13.862l14.642 3.937V7.671L11.597 3.733z"/><path fill="#afb1b8" style="fill:var(--color3, #afb1b8)" d="M19.443 27.968 4.8 24.028V10.167l14.643 3.939v13.863z"/><path fill="#afb1b8" style="fill:var(--color3, #afb1b8)" d="m11.839 4.619 12.809 3.445-5.447 5.158L6.39 9.776l5.449-5.157zm-.243-.886L4.8 10.167l14.643 3.939 6.795-6.434-14.642-3.939zm8.672 23.455 5.97-5.653-5.97-1.607v7.26z"/></symbol><symbol id="icon-menu_40px" viewBox="0 0 32 32"><path d="M6.4 11.734V9.6h19.2v2.134H6.4zm0 5.332h19.2v-2.133H6.4v2.133zm0 5.334h19.2v-2.134H6.4V22.4z"/></symbol><symbol id="icon-person-black-18dp" viewBox="0 0 32 32"><path d="M16 16a5.333 5.333 0 1 0 0-10.666A5.333 5.333 0 1 0 16 16zm0 2.667c-3.561 0-10.667 1.787-10.667 5.333v1.333c0 .732.599 1.333 1.333 1.333h18.667c.732 0 1.333-.601 1.333-1.333V24c0-3.547-7.108-5.333-10.667-5.333z"/></symbol><symbol id="icon-phone-black-18dp" viewBox="0 0 32 32"><path d="m24.882 19.774-3.268-.373a2.552 2.552 0 0 0-2.11.732l-2.368 2.368c-3.669-1.894-6.585-4.81-8.427-8.372l-.051-.108 2.382-2.377a2.553 2.553 0 0 0 .733-2.122l.001.012-.373-3.243a2.578 2.578 0 0 0-2.557-2.276h-2.23c-1.454 0-2.663 1.209-2.574 2.663.683 10.987 9.468 19.76 20.444 20.443 1.452.089 2.663-1.12 2.663-2.574v-2.238a2.549 2.549 0 0 0-2.253-2.532l-.012-.001z"/></symbol><symbol id="icon-send" viewBox="0 0 32 32"><path fill="#fff" style="fill:var(--color4, #fff)" d="M32 0 0 18l10.227 3.787L26 7 14.003 23.187l.009.003-.012-.003V32l5.735-6.691L27.002 28l4.999-28z"/></symbol><symbol id="icon-twitter" viewBox="0 0 32 32"><path fill="#afb1b8" style="fill:var(--color3, #afb1b8)" d="M32 6.078c-1.1.493-2.376.857-3.713 1.028l-.068.007a6.556 6.556 0 0 0 2.873-3.579l.013-.046a12.89 12.89 0 0 1-4.076 1.573l-.084.014A6.558 6.558 0 0 0 15.6 9.557v.004c0 .52.043 1.021.152 1.496-5.454-.266-10.28-2.88-13.522-6.861a6.524 6.524 0 0 0-.902 3.313v.001a6.57 6.57 0 0 0 2.914 5.451 6.453 6.453 0 0 1-2.994-.823l.033.017v.072a6.592 6.592 0 0 0 5.213 6.44l.043.008a6.403 6.403 0 0 1-1.662.215h-.061.003c-.419 0-.843-.024-1.242-.112.85 2.598 3.261 4.509 6.13 4.57a13.096 13.096 0 0 1-8.123 2.8H1.57h.001c-.538 0-1.053-.026-1.57-.091 2.827 1.846 6.287 2.944 10.004 2.944h.063-.003c12.072 0 18.672-10 18.672-18.669 0-.288-.01-.57-.024-.848a13.19 13.19 0 0 0 3.258-3.356l.03-.047z"/></symbol></defs></svg>